<?xml version="1.0" encoding="UTF-8" standalone="no"?>
<svg
   viewBox="0 0 512 512"
   id="vector"
   version="1.1"
   sodipodi:docname="icon.svg"
   width="512"
   height="512"
   xmlns:inkscape="http://www.inkscape.org/namespaces/inkscape"
   xmlns:sodipodi="http://sodipodi.sourceforge.net/DTD/sodipodi-0.dtd"
   xmlns="http://www.w3.org/2000/svg"
   xmlns:svg="http://www.w3.org/2000/svg">
  <defs
     id="defs14" />
  <sodipodi:namedview
     id="namedview12"
     pagecolor="#ffffff"
     bordercolor="#000000"
     borderopacity="0.25"
     inkscape:showpageshadow="2"
     inkscape:pageopacity="0.0"
     inkscape:pagecheckerboard="0"
     inkscape:deskcolor="#d1d1d1"
     showgrid="false" />
  <path
     id="path"
     d="M 0,0 H 512 V 512 H 0 Z"
     fill="#3ddc84"
     style="stroke-width:0.533334" />
  <path
     id="path_1"
     d="M 225.417,242.333 H 119.833 q -7.437,0 -12.468,-5.031 -5.032,-5.031 -5.032,-12.469 V 119.25 q 0,-7.437 5.032,-12.469 5.031,-5.031 12.468,-5.031 h 105.584 q 7.437,0 12.468,5.031 5.032,5.032 5.032,12.469 v 105.583 q 0,7.438 -5.032,12.469 -5.031,5.031 -12.468,5.031 z m 0,163.917 H 119.833 q -7.437,0 -12.468,-5.031 -5.032,-5.031 -5.032,-12.469 V 283.167 q 0,-7.438 5.032,-12.469 5.031,-5.031 12.468,-5.031 h 105.584 q 7.437,0 12.468,5.031 5.032,5.031 5.032,12.469 V 388.75 q 0,7.438 -5.032,12.469 -5.031,5.031 -12.468,5.031 z M 388.75,242.333 H 283.167 q -7.438,0 -12.469,-5.031 -5.031,-5.031 -5.031,-12.469 V 119.25 q 0,-7.437 5.031,-12.469 5.031,-5.031 12.469,-5.031 H 388.75 q 7.438,0 12.469,5.031 5.031,5.032 5.031,12.469 v 105.583 q 0,7.438 -5.031,12.469 -5.031,5.031 -12.469,5.031 z m 0,163.917 H 283.167 q -7.438,0 -12.469,-5.031 -5.031,-5.031 -5.031,-12.469 V 283.167 q 0,-7.438 5.031,-12.469 5.031,-5.031 12.469,-5.031 H 388.75 q 7.438,0 12.469,5.031 5.031,5.031 5.031,12.469 V 388.75 q 0,7.438 -5.031,12.469 -5.031,5.031 -12.469,5.031 z M 137.333,207.333 h 70.584 V 136.75 h -70.584 z m 163.334,0 H 371.25 V 136.75 H 300.667 Z M 137.333,371.25 h 70.584 v -70.583 h -70.584 z m 163.334,0 h 70.583 v -70.583 h -70.583 z m -92.75,-163.917 z m 92.75,0 z m 0,93.334 z m -92.75,0 z M 79,464 Q 65,464 54.5,453.5 44,443 44,429 V 79.000004 Q 44,65.000004 54.5,54.5 65,44 79,44 h 350 q 14,0 24.5,10.5 Q 464,65.000004 464,79.000004 V 429 q 0,14 -10.5,24.5 Q 443,464 429,464 Z m 0,-35 H 429 V 79.000004 H 79 Z"
     fill="#424242"
     stroke-width="1" />
</svg>
